<?xml version="1.0" encoding="UTF-8" standalone="no"?>
<!-- Created with Inkscape (http://www.inkscape.org/) -->

<svg
   width="108pt"
   height="108pt"
   viewBox="0 0 38.100001 38.100001"
   version="1.1"
   id="svg5"
   sodipodi:docname="es-logo-path.svg"
   inkscape:version="1.1.2 (b8e25be833, 2022-02-05)"
   xmlns:inkscape="http://www.inkscape.org/namespaces/inkscape"
   xmlns:sodipodi="http://sodipodi.sourceforge.net/DTD/sodipodi-0.dtd"
   xmlns="http://www.w3.org/2000/svg"
   xmlns:svg="http://www.w3.org/2000/svg">
  <sodipodi:namedview
     id="namedview7"
     pagecolor="#ffffff"
     bordercolor="#666666"
     borderopacity="1.0"
     inkscape:pageshadow="2"
     inkscape:pageopacity="0.0"
     inkscape:pagecheckerboard="0"
     inkscape:document-units="pt"
     showgrid="false"
     units="pt"
     inkscape:zoom="1.4805976"
     inkscape:cx="157.03118"
     inkscape:cy="142.84772"
     inkscape:window-width="1284"
     inkscape:window-height="1040"
     inkscape:window-x="532"
     inkscape:window-y="24"
     inkscape:window-maximized="0"
     inkscape:current-layer="layer1" />
  <defs
     id="defs2" />
  <g
     inkscape:label="Layer 1"
     inkscape:groupmode="layer"
     id="layer1">
    <g
       aria-label="es"
       transform="matrix(0.26458334,0,0,0.26458334,-1.2509025,28.949459)"
       id="text30160"
       style="font-size:148px;line-height:1.25;white-space:pre;shape-inside:url(#rect30162)">
      <path
         d="m 62.308,-24.272 c -1.217981,9.016206 -10.136896,15.3000819 -18.962778,14.994542 -10.044458,0.584489 -21.273892,-5.39691 -23.412794,-15.823957 -2.091,-3.944738 -2.700527,-11.157392 3.652054,-9.382585 17.446506,0 34.893012,0 52.339518,0 0.524909,-14.495165 -4.065548,-30.791484 -16.919984,-38.98875 -15.765563,-10.08901 -39.076987,-4.005501 -47.942692,12.467365 -7.5778975,13.299688 -7.3315875,30.250843 -1.109403,43.993065 5.181048,10.9513924 16.529455,18.4309211 28.66004,18.7132519 12.660594,1.1816305 26.972334,-3.9202763 32.749514,-15.9676729 0.652563,-2.756723 6.34726,-10.927087 0.744743,-10.005259 -3.266073,0 -6.532145,0 -9.798218,0 z m -43.66,-21.312 c 0.177081,-11.344039 9.956119,-22.057341 21.622175,-21.660125 10.466373,-0.286555 20.365607,8.0408 21.9037,18.392563 2.244005,5.062955 -5.114145,2.862472 -8.126361,3.267562 -11.799838,0 -23.599676,0 -35.399514,0 z"
         style="font-family:'HelveticaNeue LT 55 Roman';-inkscape-font-specification:'HelveticaNeue LT 55 Roman, ';fill:#aaaaaa"
         id="path8141" />
      <path
         d="m 84.064097,-24.124 c -0.255092,10.838432 7.383139,21.4342621 18.117593,23.81921484 12.12661,3.53760516 25.97167,2.85440946 37.06887,-3.46790714 9.82121,-6.0768962 13.42953,-21.1193167 5.79761,-30.2416557 -7.53831,-8.806472 -19.9165,-9.570045 -30.44736,-12.104294 -5.71234,-1.72838 -13.80049,-3.231042 -15.494732,-9.895535 -1.187637,-6.865324 5.833682,-10.428843 11.609582,-10.885361 6.83779,-1.029561 14.77994,0.257645 19.71444,5.351421 1.45081,3.153025 2.28403,8.436954 6.90086,7.232117 2.76705,0 5.53409,0 8.30114,0 -0.0129,-9.726107 -6.35334,-19.678785 -16.19737,-21.871806 -11.79242,-3.497611 -25.65537,-3.088109 -36.048699,4.03453 -9.010654,6.440207 -10.801818,21.362912 -2.243244,28.902122 10.108443,9.001421 24.706343,7.821764 36.631073,12.803779 6.88106,1.579683 10.67466,10.730354 5.70605,16.186187 -6.6058,6.0516755 -16.40746,5.3185062 -24.63096,4.103652 -6.10107,-1.309101 -12.040221,-6.295587 -12.142415,-12.916589 -2.183322,-2.338233 -6.466135,-0.52644 -9.60618,-1.049875 -1.012086,0 -2.024172,0 -3.036258,0 z"
         style="font-family:'HelveticaNeue LT 55 Roman';-inkscape-font-specification:'HelveticaNeue LT 55 Roman, ';fill:#aaaaaa"
         id="path8143" />
    </g>
  </g>
</svg>
